<svg width="94" height="26" viewBox="0 0 94 26" fill="none" xmlns="http://www.w3.org/2000/svg">
<path d="M32.896 3.536L27.04 26H20.416L16.832 11.216L13.12 26H6.496L0.8 3.536H6.656L9.888 19.888L13.888 3.536H19.904L23.744 19.888L27.008 3.536H32.896ZM45.1123 6.288C44.1523 6.288 43.3629 6.01067 42.7443 5.456C42.1469 4.88 41.8483 4.176 41.8483 3.344C41.8483 2.49067 42.1469 1.78667 42.7443 1.232C43.3629 0.655998 44.1523 0.367998 45.1123 0.367998C46.0509 0.367998 46.8189 0.655998 47.4163 1.232C48.0349 1.78667 48.3443 2.49067 48.3443 3.344C48.3443 4.176 48.0349 4.88 47.4163 5.456C46.8189 6.01067 46.0509 6.288 45.1123 6.288ZM47.8323 8.144V26H42.3603V8.144H47.8323ZM71.5417 26L63.9897 16.08V26H58.5177V3.536H63.9897V13.392L71.4777 3.536H77.9097L69.2057 14.544L78.2297 26H71.5417ZM90.3022 6.288C89.3422 6.288 88.5529 6.01067 87.9342 5.456C87.3369 4.88 87.0382 4.176 87.0382 3.344C87.0382 2.49067 87.3369 1.78667 87.9342 1.232C88.5529 0.655998 89.3422 0.367998 90.3022 0.367998C91.2409 0.367998 92.0089 0.655998 92.6062 1.232C93.2249 1.78667 93.5342 2.49067 93.5342 3.344C93.5342 4.176 93.2249 4.88 92.6062 5.456C92.0089 6.01067 91.2409 6.288 90.3022 6.288ZM93.0222 8.144V26H87.5502V8.144H93.0222Z" fill="#F2F2F2"/>
</svg>
